# xmcd
#
# Track frame offsets:
#	150
#	19301
#	50483
#	67262
#	88102
#	109525
#	139304
#	156288
#	176438
#	194881
#	218690
#
# Disc length: 3210 seconds
#
# Revision: 0
# Processed by: cddbd v1.5.2PL0 Copyright (c) Steve Scherf et al.
# Submitted via: audiograbber 1.83.01
#
DISCID=a60c880b
DTITLE=Various Artist - Looking Into You: A Tribute To Jackson Browne
DYEAR=2014
DGENRE=Americana
TTITLE0=Keb' Mo' - Rock Me On The Water
TTITLE1=Lucinda Wiliams - The Pretender
TTITLE2=Lyle Lovett - Rosie
TTITLE3=Karla Bonoff - Something Fine
TTITLE4=Marc Cohn (ft Joan as Policewoman) - Too Many Angels
TTITLE5=Sara and Sean Watkins - Your Bright Baby Blues
TTITLE6=Bruce Springsteen and Patti Scialfa - Linda Paloma
TTITLE7=Shawn Colvin - Call It A Loan
TTITLE8=Bruce Hornsby - I'm Alive
TTITLE9=Joan Osborne - Late For The Sky
TTITLE10=JD Souther - My Opening Farewell
EXTD=
EXTT0=
EXTT1=
EXTT2=
EXTT3=
EXTT4=
EXTT5=
EXTT6=
EXTT7=
EXTT8=
EXTT9=
EXTT10=
PLAYORDER=
